# xmcd CD database file
#
# Track frame offsets:
#	150
#	11992
#	32325
#	47321
#	60196
#	75686
#	88874
#	113961
#	136062
#	154236
#	165926
#	181734
#	208783
#	223678
#	239585
#
# Disc length: 3445 seconds
#
# Revision: 0
# Processed by: cddbd v1.5.1PL0 Copyright (c) Steve Scherf et al.
# Submitted via: CDex 1.51
#
DISCID=bb0d730f
DTITLE=Los Cuatro De Belen - Del Sentimiento Al Son Cd 2
DYEAR=1900
DGENRE=Salsa
TTITLE0=Puchunguita
TTITLE1=Echale Salsita
TTITLE2=La Mujer De Antonio
TTITLE3=A Cienfuegos
TTITLE4=Maria Cristina
TTITLE5=Harina De Maiz Criolla
TTITLE6=La Maza
TTITLE7=Santabarbara
TTITLE8=De Que Callada Manera
TTITLE9=Mirame Fijo
TTITLE10=Unicornio
TTITLE11=Yo Soy El Punto Cubano
TTITLE12=Mami Me Gusto
TTITLE13=El Cinturon Del Taxi
TTITLE14=Mosaico Merengues
EXTD=
EXTT0=
EXTT1=
EXTT2=
EXTT3=
EXTT4=
EXTT5=
EXTT6=
EXTT7=
EXTT8=
EXTT9=
EXTT10=
EXTT11=
EXTT12=
EXTT13=
EXTT14=
PLAYORDER=
